<svg xmlns="http://www.w3.org/2000/svg" viewBox="0 0 740.49 133.55"><defs><style>.cls-1{fill:#1f2329;}.cls-2{fill:none;stroke:#1f2329;stroke-linecap:round;stroke-linejoin:round;stroke-width:9px;}</style></defs><title>spacemesh logo new</title><g id="Layer_2" data-name="Layer 2"><g id="Layer_1-2" data-name="Layer 1"><path class="cls-1" d="M172.66,81.14c0,11-9.47,17.75-22.13,17.75-11.83,0-20.11-5.68-23.54-13.84L135.86,80c1.89,5.68,7.34,9.23,14.67,9.23,6.27,0,11.72-2.25,11.72-8,0-12.66-33.13-5.44-33.13-26.86,0-10.41,9-17.63,20.94-17.63,9.7,0,17.51,4.62,21.3,12.31l-8.64,4.85c-2.25-5.32-7.45-7.57-12.66-7.57s-10.53,2.6-10.53,7.93c0,12.66,33.13,5.2,33.13,27"/><path class="cls-1" d="M237.15,67.77c0-12.07-9.12-21.18-21-21.18a20.69,20.69,0,0,0-21.06,21.18A20.69,20.69,0,0,0,216.2,89c11.83,0,21-9.11,21-21.18m10.29,0c0,17.52-13.49,31.12-29.94,31.12-10.05,0-17.63-4.49-22.36-11.71V121h-10.3V38.19h10.3V48.37c4.73-7.22,12.31-11.72,22.36-11.72,16.45,0,29.94,13.61,29.94,31.12"/><path class="cls-1" d="M308.73,67.77a20.69,20.69,0,0,0-21.06-21.18c-11.83,0-20.95,9.11-20.95,21.18S275.84,89,287.67,89a20.69,20.69,0,0,0,21.06-21.18M319,38.19V97.36h-10.3V87.18C304,94.4,296.42,98.89,286.37,98.89c-16.45,0-29.94-13.6-29.94-31.12s13.49-31.12,29.94-31.12c10.05,0,17.63,4.5,22.36,11.72V38.19Z"/><path class="cls-1" d="M331.33,67.77c0-17.51,13.25-31.12,31.12-31.12,11.71,0,21.65,6.16,26.15,15.5l-8.64,5c-3-6.27-9.58-10.41-17.51-10.41-11.83,0-20.83,9.11-20.83,21.06a20.52,20.52,0,0,0,20.83,21,19.84,19.84,0,0,0,17.87-10.3l8.75,5.09a30,30,0,0,1-26.62,15.38c-17.87,0-31.12-13.6-31.12-31.12"/><path class="cls-1" d="M405.64,63.51h39.52C443.38,51.8,435,46.36,426.11,46.36c-11.13,0-18.82,6.86-20.47,17.15m21.41,25.68c8.17,0,14.08-3.79,17-8.64l8.76,5c-5.21,8-14.2,13.37-26,13.37-19.05,0-31.72-13.37-31.72-31.12,0-17.51,12.55-31.12,31-31.12,17.86,0,29.46,14.68,29.46,31.24a31.24,31.24,0,0,1-.35,4.62H405.64c2,10.65,10.41,16.68,21.41,16.68"/><path class="cls-1" d="M553.54,60.56v36.8H543.25V60.91c0-9.35-5.21-14.44-13-14.44-8.28,0-14.55,5.21-14.55,18v32.9h-10.3V60.91c0-9.35-4.85-14.44-12.54-14.44-7.93,0-15.15,5.21-15.15,18v32.9H467.4V38.19h10.29v7.93c4.26-6.63,10.42-9.47,17.63-9.47,8.05,0,14,3.67,17.4,10.06,4.14-6.74,10.89-10.06,18.58-10.06,13.13,0,22.24,9.11,22.24,23.91"/><path class="cls-1" d="M575.07,63.51H614.6c-1.78-11.71-10.18-17.15-19.06-17.15-11.12,0-18.81,6.86-20.47,17.15m21.42,25.68c8.17,0,14.08-3.79,17-8.64l8.76,5c-5.21,8-14.2,13.37-26,13.37-19,0-31.71-13.37-31.71-31.12,0-17.51,12.55-31.12,31-31.12,17.87,0,29.47,14.68,29.47,31.24a30,30,0,0,1-.36,4.62H575.07c2,10.65,10.42,16.68,21.42,16.68"/><path class="cls-1" d="M676.48,81.14c0,11-9.47,17.75-22.13,17.75-11.83,0-20.11-5.68-23.55-13.84L639.68,80c1.89,5.68,7.34,9.23,14.67,9.23,6.27,0,11.72-2.25,11.72-8,0-12.66-33.14-5.44-33.14-26.86,0-10.41,9-17.63,21-17.63,9.7,0,17.51,4.62,21.3,12.31l-8.64,4.85c-2.25-5.32-7.45-7.57-12.66-7.57s-10.53,2.6-10.53,7.93c0,12.66,33.13,5.2,33.13,27"/><path class="cls-1" d="M740.49,61V97.36H730.2V61.62c0-9.7-5.56-15.15-14.67-15.15-9.47,0-17.16,5.57-17.16,19.53V97.36h-10.3V14.53h10.3V46.71c4.38-7,10.88-10.06,19.17-10.06,13.84,0,23,9.23,23,24.38"/><path class="cls-2" d="M82.42,4.5,5.61,21.88a1.44,1.44,0,0,0-.37,2.66L88.41,66.29a2.44,2.44,0,0,1-.27,4.41l-82.86,39a1.23,1.23,0,0,0,.16,2.34l76.18,17a.55.55,0,0,0,.49-1l-69-57.24A3.75,3.75,0,0,1,13,65.14Z"/></g></g></svg>